Coordinates
version=1
nRows=26
nColumns=18
inDegrees=yes

Units are S.I. units (second, meters, Newtons, ...)
If the header above contains a line with 'inDegrees', this indicates whether rotational values are in degrees (yes) or radians (no).

endheader
time	ground_thorax_rot_x	ground_thorax_rot_y	ground_thorax_rot_z	ground_thorax_tx	ground_thorax_ty	ground_thorax_tz	clav_prot	clav_elev	scapula_abduction	scapula_elevation	scapula_upward_rot	scapula_winging	plane_elv	shoulder_elv	axial_rot	elbow_flexion	pro_sup
      0.00000000	      3.52265567	    -13.88688274	    -13.04561160	     -0.00855067	      0.00781288	      0.03360391	    -19.97506764	    -13.84043226	     -9.40676687	    -11.82281299	     15.20467615	     22.84917437	    -16.00000002	     18.14977273	     38.02222372	      0.00120871	      0.00000001
      0.02000000	      3.60307809	    -13.73951443	    -13.07322532	     -0.00851086	      0.00776208	      0.03366191	    -20.09850097	    -13.80783657	     -9.55895568	    -11.81988075	     15.26633603	     22.85476984	    -16.00000002	     18.09158492	     38.35976282	      0.00120871	      0.00000001
      0.04000000	      3.59326346	    -13.71770143	    -13.04441187	     -0.00854874	      0.00772090	      0.03376169	    -20.03165776	    -13.77404746	     -9.50027322	    -11.77973756	     15.21832529	     22.82832453	    -16.00000002	     18.10204952	     37.87457708	      0.00120871	      0.00000001
      0.06000000	      3.71835007	    -13.50327861	    -13.03704771	     -0.00856096	      0.00767538	      0.03371763	    -20.20537764	    -13.67551847	     -9.73619790	    -11.73409455	     15.29483379	     22.81107214	    -16.00000002	     18.02828066	     38.44691758	      0.00120871	      0.00000001
      0.08000000	      3.70961917	    -13.48089895	    -13.00566806	     -0.00866972	      0.00764804	      0.03381581	    -20.13812944	    -13.64289425	     -9.67588684	    -11.69502030	     15.24779313	     22.78562685	    -16.00000002	     18.03858436	     37.96014104	      0.00120871	      0.00000001
      0.10000000	      3.86291646	    -13.28163519	    -12.98797492	     -0.00877550	      0.00763573	      0.03379846	    -20.30614395	    -13.52226456	     -9.89258001	    -11.64012060	     15.35419378	     22.75173847	    -16.00000002	     17.96225295	     38.49381579	      0.00120871	      0.00000001
      0.12000000	      3.85221981	    -13.26031171	    -12.95159547	     -0.00898519	      0.00762110	      0.03386577	    -20.23955716	    -13.49299942	     -9.83014194	    -11.60446144	     15.31072129	     22.72734571	    -16.00000002	     17.97521458	     38.00984586	      0.00120871	      0.00000001
      0.14000000	      3.84222977	    -13.23543272	    -12.91397524	     -0.00927362	      0.00762672	      0.03391135	    -20.17499444	    -13.46803058	     -9.76636373	    -11.57333214	     15.27234415	     22.70476797	    -16.00000002	     17.99180205	     37.54490998	      0.00120871	      0.00000001
      0.16000000	      3.92842247	    -13.13580453	    -12.94291851	     -0.00942623	      0.00764159	      0.03398595	    -20.32891888	    -13.45536825	     -9.93731272	    -11.59505943	     15.36784607	     22.72237907	    -16.00000002	     17.89574681	     38.57091440	      0.00120871	      0.00000001
      0.18000000	      3.91320179	    -13.11738096	    -12.89569838	     -0.00980228	      0.00764923	      0.03400455	    -20.26421675	    -13.42807098	     -9.87420769	    -11.56212782	     15.32913939	     22.69873860	    -16.00000002	     17.91616092	     38.08460454	      0.00120871	      0.00000001
      0.20000000	      3.90584631	    -13.09801313	    -12.84997342	     -0.01024887	      0.00767995	      0.03403792	    -20.20269475	    -13.40940734	     -9.80924366	    -11.53738042	     15.29709658	     22.67907956	    -16.00000002	     17.94073626	     37.62708712	      0.00120871	      0.00000001
      0.22000000	      3.97339609	    -13.08777112	    -12.92763090	     -0.01053190	      0.00774212	      0.03414523	    -20.27617373	    -13.47671922	     -9.84043709	    -11.61415754	     15.39173792	     22.71558539	    -16.00000002	     17.93611788	     38.24799844	      0.00120871	      0.00000001
      0.24000000	      3.95337042	    -13.07157976	    -12.87032271	     -0.01102844	      0.00777852	      0.03416439	    -20.21298479	    -13.45077342	     -9.77871268	    -11.58249548	     15.35377739	     22.69283572	    -16.00000002	     17.95589803	     37.78268489	      0.00120871	      0.00000001
      0.26000000	      4.04102770	    -13.05170220	    -12.80425820	     -0.01135917	      0.00790764	      0.03432262	    -20.32294705	    -13.42173627	     -9.93176625	    -11.57270490	     15.37938873	     22.70246476	    -16.00000002	     17.91215873	     38.79284505	      0.00120871	      0.00000001
      0.28000000	      4.02028111	    -13.03706783	    -12.75701951	     -0.01186783	      0.00792313	      0.03433204	    -20.26025607	    -13.39717282	     -9.86799283	    -11.54305970	     15.34539664	     22.67995181	    -16.00000002	     17.94254936	     38.30919229	      0.00120871	      0.00000001
      0.30000000	      4.00331478	    -13.02346674	    -12.71246189	     -0.01238553	      0.00796043	      0.03433827	    -20.19668593	    -13.37613592	     -9.80011309	    -11.51672882	     15.31444111	     22.65844662	    -16.00000002	     17.97801544	     37.83073471	      0.00120871	      0.00000001
      0.32000000	      4.05437674	    -13.02199703	    -12.75194928	     -0.01264757	      0.00806379	      0.03447759	    -20.28867717	    -13.44539925	     -9.89402000	    -11.58059825	     15.34714400	     22.71057738	    -16.00000002	     17.97979739	     38.87595217	      0.00120871	      0.00000001
      0.34000000	      4.03370666	    -13.00609766	    -12.70830781	     -0.01312092	      0.00808498	      0.03451405	    -20.22514247	    -13.41989767	     -9.83011940	    -11.54986842	     15.31175993	     22.68757924	    -16.00000002	     18.00776148	     38.38754319	      0.00120871	      0.00000001
      0.36000000	      4.04736914	    -12.98921294	    -12.80299786	     -0.01345895	      0.00813331	      0.03451624	    -20.22088737	    -13.49486226	     -9.77940288	    -11.61461134	     15.35004170	     22.71715164	    -16.00000002	     18.07145934	     38.46359567	      0.00120871	      0.00000001
      0.38000000	      4.02385003	    -12.97503482	    -12.76203023	     -0.01386508	      0.00814326	      0.03455867	    -20.15726431	    -13.46491345	     -9.71954847	    -11.57940168	     15.30982842	     22.69264662	    -16.00000002	     18.09153466	     37.98786022	      0.00120871	      0.00000001
      0.40000000	      3.99107387	    -12.95765311	    -12.85575362	     -0.01408665	      0.00810242	      0.03459520	    -20.19785833	    -13.54268714	     -9.73188425	    -11.64892525	     15.35012340	     22.73484711	    -16.00000002	     18.04919931	     38.53391146	      0.00120871	      0.00000001
      0.42000000	      3.97060317	    -12.94601895	    -12.82203769	     -0.01441662	      0.00811946	      0.03463521	    -20.13429042	    -13.50779050	     -9.67587166	    -11.60909016	     15.30600681	     22.70848616	    -16.00000002	     18.06754002	     38.05178459	      0.00120871	      0.00000001
      0.44000000	      4.05225615	    -12.83997706	    -12.80013090	     -0.01460166	      0.00817438	      0.03471758	    -20.27312820	    -13.45674195	     -9.87600111	    -11.58492764	     15.33372891	     22.71435922	    -16.00000002	     18.00035298	     38.83833142	      0.00120871	      0.00000001
      0.46000000	      4.03941360	    -12.82879562	    -12.77644651	     -0.01488117	      0.00818462	      0.03476941	    -20.20756916	    -13.42385507	     -9.81767353	    -11.54596581	     15.28755667	     22.68894624	    -16.00000002	     18.01505321	     38.34546938	      0.00120871	      0.00000001
      0.48000000	      4.03212071	    -12.81468093	    -12.76380057	     -0.01515858	      0.00818917	      0.03480161	    -20.14505155	    -13.39767960	     -9.75857459	    -11.51345196	     15.24681092	     22.66674344	    -16.00000002	     18.03152285	     37.88080668	      0.00120871	      0.00000001
      0.50000000	      4.06549719	    -12.74994979	    -12.88132278	     -0.01519826	      0.00808561	      0.03486306	    -20.29857306	    -13.42907355	     -9.89073417	    -11.57840391	     15.38533835	     22.69888974	    -16.00000002	     17.87950560	     38.64075195	      0.00120871	      0.00000001
